<svg width="32" height="32" viewBox="0 0 32 32" fill="none" xmlns="http://www.w3.org/2000/svg">
<g clip-path="url(#clip0)">
<path d="M6.798 8.38H8.096L14.586 24H12.958L10.934 19.116H3.916L1.914 24H0.264L6.798 8.38ZM10.582 17.906L7.436 10.184L4.246 17.906H10.582ZM16.2972 24V21.844H17.5952V24H16.2972ZM30.1232 11.306C29.6832 10.8073 29.0965 10.404 28.3632 10.096C27.6298 9.788 26.7938 9.634 25.8552 9.634C24.4765 9.634 23.4718 9.898 22.8412 10.426C22.2105 10.9393 21.8952 11.6433 21.8952 12.538C21.8952 13.0073 21.9758 13.396 22.1372 13.704C22.3132 13.9973 22.5772 14.254 22.9292 14.474C23.2812 14.694 23.7285 14.8847 24.2712 15.046C24.8285 15.2073 25.4812 15.3687 26.2292 15.53C27.0652 15.706 27.8132 15.904 28.4732 16.124C29.1478 16.344 29.7198 16.6227 30.1892 16.96C30.6585 17.2827 31.0178 17.6787 31.2672 18.148C31.5165 18.6173 31.6412 19.204 31.6412 19.908C31.6412 20.6267 31.5018 21.25 31.2232 21.778C30.9445 22.306 30.5558 22.746 30.0572 23.098C29.5585 23.45 28.9645 23.714 28.2752 23.89C27.5858 24.0513 26.8305 24.132 26.0092 24.132C23.5892 24.132 21.4992 23.3767 19.7392 21.866L20.5092 20.612C20.7878 20.9053 21.1178 21.184 21.4992 21.448C21.8952 21.712 22.3278 21.9467 22.7972 22.152C23.2812 22.3427 23.7945 22.4967 24.3372 22.614C24.8798 22.7167 25.4518 22.768 26.0532 22.768C27.2998 22.768 28.2678 22.548 28.9572 22.108C29.6612 21.6533 30.0132 20.9713 30.0132 20.062C30.0132 19.578 29.9105 19.1747 29.7052 18.852C29.5145 18.5147 29.2212 18.2287 28.8252 17.994C28.4292 17.7447 27.9378 17.532 27.3512 17.356C26.7645 17.18 26.0825 17.004 25.3052 16.828C24.4838 16.6373 23.7652 16.4393 23.1492 16.234C22.5332 16.0287 22.0125 15.772 21.5872 15.464C21.1618 15.156 20.8392 14.7893 20.6192 14.364C20.4138 13.924 20.3112 13.3887 20.3112 12.758C20.3112 12.0393 20.4432 11.4013 20.7072 10.844C20.9858 10.272 21.3745 9.80267 21.8732 9.436C22.3718 9.05467 22.9585 8.76867 23.6332 8.578C24.3078 8.37267 25.0558 8.27 25.8772 8.27C26.9185 8.27 27.8425 8.43133 28.6492 8.754C29.4705 9.062 30.2112 9.502 30.8712 10.074L30.1232 11.306Z" fill="#00C5B2"/>
</g>
<defs>
<clipPath id="clip0">
<rect width="32" height="32" fill="white"/>
</clipPath>
</defs>
</svg>
