<svg width="747" height="161" viewBox="0 0 747 161" fill="none" xmlns="http://www.w3.org/2000/svg">
<path d="M0.2 115C0.2 108.867 1.33333 103.133 3.6 97.8C6 92.3333 9.2 87.6 13.2 83.6C17.2 79.4667 21.8 76.2 27 73.8C32.3333 71.4 38 70.2 44 70.2C48 70.2 51.6667 70.7333 55 71.8C58.3333 72.7333 61.2 73.9333 63.6 75.4C66 76.8667 67.9333 78.4 69.4 80C70.8667 81.6 71.8667 83 72.4 84.2L73.2 72.4H89.6V156H72.4V145.4C71.7333 146.467 70.6667 147.733 69.2 149.2C67.7333 150.667 65.8 152.067 63.4 153.4C61.1333 154.6 58.4 155.667 55.2 156.6C52 157.533 48.3333 158 44.2 158C37.8 158 31.8667 156.867 26.4 154.6C21.0667 152.2 16.4667 149.067 12.6 145.2C8.73333 141.2 5.66667 136.6 3.4 131.4C1.26667 126.2 0.2 120.733 0.2 115ZM17.4 114C17.4 117.867 18.0667 121.467 19.4 124.8C20.8667 128.133 22.8 131 25.2 133.4C27.6 135.8 30.4667 137.733 33.8 139.2C37.1333 140.533 40.8 141.2 44.8 141.2C48.8 141.2 52.4667 140.533 55.8 139.2C59.2667 137.733 62.2 135.8 64.6 133.4C67.1333 130.867 69.0667 128 70.4 124.8C71.7333 121.467 72.4 117.867 72.4 114C72.4 110.133 71.7333 106.6 70.4 103.4C69.0667 100.067 67.1333 97.2 64.6 94.8C62.2 92.4 59.2667 90.5333 55.8 89.2C52.4667 87.7333 48.8 87 44.8 87C40.8 87 37.1333 87.7333 33.8 89.2C30.4667 90.5333 27.6 92.4 25.2 94.8C22.8 97.2 20.8667 100.067 19.4 103.4C18.0667 106.6 17.4 110.133 17.4 114ZM173.017 70.2L183.217 80.4C178.151 85.0667 173.284 89.6 168.617 94C164.084 98.4 159.284 103 154.217 107.8C160.217 115.8 166.084 123.867 171.817 132C177.551 140 183.351 148 189.217 156H169.617C165.084 149.733 160.484 143.6 155.817 137.6C151.284 131.467 146.751 125.267 142.217 119L130.617 129.6V156H113.617V0.599998H130.617V109.6C138.084 102.8 145.217 96.2667 152.017 90C158.817 83.6 165.817 77 173.017 70.2ZM194.894 89V72.2H209.094V52.8C209.094 35.3333 213.16 22.4 221.294 14C229.56 5.46666 241.227 0.999993 256.294 0.599998V17C245.894 17.5333 238.294 20.8667 233.494 27C228.694 33.1333 226.294 41.8667 226.294 53.2V72.2H252.694V89H226.294V156H209.094V89H194.894ZM266.547 72.4H281.547C281.814 76.5333 282.014 80.3333 282.147 83.8C282.414 87.1333 282.68 90.4667 282.947 93.8C286.014 86.6 290.014 80.9333 294.947 76.8C300.014 72.5333 306.747 70.3333 315.147 70.2C323.28 70.2 329.814 72.2667 334.747 76.4C339.68 80.5333 342.547 85.9333 343.347 92.6C346.68 85.8 350.747 80.4 355.547 76.4C360.48 72.4 367.08 70.3333 375.347 70.2C384.014 70.2 390.814 72.5333 395.747 77.2C400.814 81.8667 403.48 87.8667 403.747 95.2V156H386.547V103C386.28 98.7333 384.814 95.1333 382.147 92.2C379.614 89.1333 375.414 87.4667 369.547 87.2C361.547 87.2 355.28 89.8 350.747 95C346.214 100.067 343.814 106.6 343.547 114.6V156H326.547V103C326.28 98.7333 324.747 95.1333 321.947 92.2C319.28 89.1333 315.147 87.4667 309.547 87.2C305.547 87.2 301.947 87.9333 298.747 89.4C295.547 90.7333 292.814 92.6 290.547 95C288.28 97.4 286.547 100.267 285.347 103.6C284.147 106.933 283.547 110.6 283.547 114.6V156H266.547V72.4ZM425.698 144.8C425.698 141.6 426.832 138.933 429.098 136.8C431.498 134.533 434.165 133.4 437.098 133.4C439.765 133.4 442.232 134.533 444.498 136.8C446.898 138.933 448.098 141.6 448.098 144.8C448.098 148.267 446.898 151 444.498 153C442.232 155 439.765 156 437.098 156C434.165 156 431.498 155 429.098 153C426.832 151 425.698 148.267 425.698 144.8ZM465.244 114.2C465.244 107.667 466.31 101.733 468.444 96.4C470.71 90.9333 473.777 86.2667 477.644 82.4C481.51 78.5333 486.044 75.5333 491.244 73.4C496.577 71.2667 502.31 70.2 508.444 70.2C512.577 70.2 516.244 70.7333 519.444 71.8C522.777 72.7333 525.577 73.9333 527.844 75.4C530.244 76.7333 532.244 78.2667 533.844 80C535.444 81.7333 536.644 83.2667 537.444 84.6V0.599998H554.644V156H537.444V149.8C537.444 149 537.51 148.133 537.644 147.2C537.777 146.133 537.844 145.267 537.844 144.6C536.51 146.2 534.91 147.8 533.044 149.4C531.31 150.867 529.244 152.267 526.844 153.6C524.444 154.933 521.644 156 518.444 156.8C515.377 157.6 511.844 158 507.844 158C501.177 158 495.177 156.867 489.844 154.6C484.644 152.2 480.177 149.067 476.444 145.2C472.844 141.2 470.044 136.533 468.044 131.2C466.177 125.867 465.244 120.2 465.244 114.2ZM482.444 114C482.444 117.867 483.11 121.467 484.444 124.8C485.91 128.133 487.844 131 490.244 133.4C492.644 135.8 495.51 137.733 498.844 139.2C502.177 140.533 505.844 141.2 509.844 141.2C513.844 141.2 517.51 140.533 520.844 139.2C524.31 137.733 527.244 135.8 529.644 133.4C532.177 130.867 534.11 128 535.444 124.8C536.777 121.467 537.444 117.867 537.444 114C537.444 110.133 536.777 106.6 535.444 103.4C534.11 100.067 532.177 97.2 529.644 94.8C527.244 92.4 524.31 90.5333 520.844 89.2C517.51 87.7333 513.844 87 509.844 87C505.844 87 502.177 87.7333 498.844 89.2C495.51 90.5333 492.644 92.4 490.244 94.8C487.844 97.2 485.91 100.067 484.444 103.4C483.11 106.6 482.444 110.133 482.444 114ZM649.456 146.2C645.456 149.8 640.59 152.667 634.856 154.8C629.123 156.933 623.256 158 617.256 158C611.123 158 605.323 156.867 599.856 154.6C594.523 152.2 589.856 149.067 585.856 145.2C581.856 141.2 578.656 136.533 576.256 131.2C573.99 125.867 572.856 120.2 572.856 114.2C572.856 108.2 573.99 102.533 576.256 97.2C578.656 91.8667 581.856 87.2 585.856 83.2C589.856 79.2 594.456 76.0667 599.656 73.8C604.99 71.4 610.656 70.2 616.656 70.2C626.123 70.2 634.323 73.0667 641.256 78.8C648.323 84.4 653.39 91.8 656.456 101C652.323 102.467 647.59 104.267 642.256 106.4C636.923 108.533 631.39 110.8 625.656 113.2C619.923 115.467 614.19 117.733 608.456 120C602.723 122.267 597.39 124.333 592.456 126.2C594.723 130.733 597.99 134.4 602.256 137.2C606.656 139.867 611.523 141.2 616.856 141.2C620.456 141.2 624.056 140.533 627.656 139.2C631.39 137.867 634.39 136.067 636.656 133.8L649.456 146.2ZM635.056 97C633.456 93.6667 630.923 91.2 627.456 89.6C623.99 87.8667 620.456 87 616.856 87C612.99 87 609.39 87.7333 606.056 89.2C602.856 90.6667 600.056 92.6667 597.656 95.2C595.256 97.6 593.323 100.4 591.856 103.6C590.523 106.8 589.856 110.067 589.856 113.4C589.856 114.067 589.856 114.533 589.856 114.8C589.99 115.067 590.056 115.267 590.056 115.4C593.523 114.067 597.256 112.6 601.256 111C605.39 109.267 609.456 107.6 613.456 106C617.456 104.267 621.323 102.667 625.056 101.2C628.79 99.6 632.123 98.2 635.056 97ZM702.663 161C694.796 146.067 687.396 131.333 680.463 116.8C673.663 102.133 666.463 87.3333 658.863 72.4H677.463C682.263 81.8667 686.063 89.6 688.863 95.6C691.796 101.6 694.129 106.6 695.863 110.6C697.596 114.6 698.929 118 699.863 120.8C700.796 123.467 701.729 126.2 702.663 129C703.729 126.2 704.729 123.467 705.663 120.8C706.729 118 708.063 114.6 709.663 110.6C711.396 106.6 713.663 101.6 716.463 95.6C719.396 89.6 723.263 81.8667 728.063 72.4H746.663C739.063 87.3333 731.729 102.133 724.663 116.8C717.596 131.333 710.263 146.067 702.663 161Z" fill="url(#paint0_linear)"/>
<defs>
<linearGradient id="paint0_linear" x1="748" y1="85.9999" x2="-6" y2="85.9999" gradientUnits="userSpaceOnUse">
<stop stop-color="#68FF6E"/>
<stop offset="1" stop-color="#3461FF"/>
</linearGradient>
</defs>
</svg>
